HIERARCHY
ROOT Hips
{
	OFFSET 0.000000 0.000000 0.000000 
	CHANNELS 6 Xposition Yposition Zposition Yrotation Xrotation Zrotation
	JOINT Spine
	{
		OFFSET 0.000000 0.072080 0.012321 
		CHANNELS 3 Xrotation Yrotation Zrotation
		JOINT Spine1
		{
			OFFSET 0.000000 0.126984 -0.001294 
			CHANNELS 3 Xrotation Yrotation Zrotation
			JOINT Spine2
			{
				OFFSET 0.000000 0.106559 -0.010096 
				CHANNELS 3 Xrotation Yrotation Zrotation
				JOINT Neck
				{
					OFFSET 0.000000 0.108417 -0.034017 
					CHANNELS 3 Xrotation Yrotation Zrotation
					JOINT Neck1
					{
						OFFSET 0.000000 0.033906 0.007241 
						CHANNELS 3 Xrotation Yrotation Zrotation
						JOINT Head
						{
							OFFSET 0.000000 0.031458 0.006707 
							CHANNELS 3 Xrotation Yrotation Zrotation
							End Site
							{
								OFFSET 0.000000 0.179920 0.000962 
							}
						}
					}
				}
				JOINT LeftShoulder
				{
					OFFSET 0.048002 0.079586 -0.029634 
					CHANNELS 3 Zrotation Xrotation Yrotation
					JOINT LeftArm
					{
						OFFSET 0.096243 -0.008695 -0.014012 
						CHANNELS 3 Zrotation Xrotation Yrotation
						JOINT LeftForeArm
						{
							OFFSET 0.216305 0.000000 0.000000 
							CHANNELS 3 Xrotation Zrotation Yrotation
							JOINT LeftHand
							{
								OFFSET 0.217764 0.000000 0.000000 
								CHANNELS 3 Zrotation Yrotation Xrotation
								JOINT LeftHandThumb1
								{
									OFFSET 0.018582 -0.007835 0.020476 
									CHANNELS 3 Zrotation Xrotation Yrotation
									JOINT LeftHandThumb2
									{
										OFFSET 0.026269 -0.007835 0.022186 
										CHANNELS 3 Zrotation Xrotation Yrotation
										JOINT LeftHandThumb3
										{
											OFFSET 0.035170 -0.010504 0.017018 
											CHANNELS 3 Zrotation Xrotation Yrotation
											End Site
											{
												OFFSET 0.020312 -0.007813 0.007813 
											}
										}
									}
								}
								JOINT LeftHandMiddle1
								{
									OFFSET 0.081749 0.004803 0.003358 
									CHANNELS 3 Zrotation Xrotation Yrotation
									JOINT LeftHandMiddle2
									{
										OFFSET 0.045251 0.000000 0.000000 
										CHANNELS 3 Zrotation Xrotation Yrotation
										JOINT LeftHandMiddle3
										{
											OFFSET 0.029009 0.000000 0.000000 
											CHANNELS 3 Zrotation Xrotation Yrotation
											End Site
											{
												OFFSET 0.017969 0.000000 0.000000 
											}
										}
									}
								}
								JOINT LeftHandIndex1
								{
									OFFSET 0.081207 0.004803 0.021137 
									CHANNELS 3 Zrotation Xrotation Yrotation
									JOINT LeftHandIndex2
									{
										OFFSET 0.043354 0.000000 0.000000 
										CHANNELS 3 Zrotation Xrotation Yrotation
										JOINT LeftHandIndex3
										{
											OFFSET 0.026493 0.000000 0.000000 
											CHANNELS 3 Zrotation Xrotation Yrotation
											End Site
											{
												OFFSET 0.019531 0.000000 0.000000 
											}
										}
									}
								}
								JOINT LeftHandRing1
								{
									OFFSET 0.080666 0.002509 -0.014652 
									CHANNELS 3 Zrotation Xrotation Yrotation
									JOINT LeftHandRing2
									{
										OFFSET 0.042541 0.000000 0.000000 
										CHANNELS 3 Zrotation Xrotation Yrotation
										JOINT LeftHandRing3
										{
											OFFSET 0.029009 0.000000 0.000000 
											CHANNELS 3 Zrotation Xrotation Yrotation
											End Site
											{
												OFFSET 0.015625 0.000000 0.000000 
											}
										}
									}
								}
								JOINT LeftHandPinky1
								{
									OFFSET 0.078227 -0.000612 -0.030993 
									CHANNELS 3 Zrotation Xrotation Yrotation
									JOINT LeftHandPinky2
									{
										OFFSET 0.028721 0.000000 0.000000 
										CHANNELS 3 Zrotation Xrotation Yrotation
										JOINT LeftHandPinky3
										{
											OFFSET 0.021963 0.000000 0.000000 
											CHANNELS 3 Zrotation Xrotation Yrotation
											End Site
											{
												OFFSET 0.022656 0.000000 0.000000 
											}
										}
									}
								}
							}
						}
					}
				}
				JOINT RightShoulder
				{
					OFFSET -0.047970 0.079586 -0.029634 
					CHANNELS 3 Zrotation Xrotation Yrotation
					JOINT RightArm
					{
						OFFSET -0.096274 -0.008695 -0.014012 
						CHANNELS 3 Zrotation Xrotation Yrotation
						JOINT RightForeArm
						{
							OFFSET -0.216305 0.000000 0.000000 
							CHANNELS 3 Xrotation Zrotation Yrotation
							JOINT RightHand
							{
								OFFSET -0.217764 0.000000 0.000000 
								CHANNELS 3 Zrotation Yrotation Xrotation
								JOINT RightHandThumb1
								{
									OFFSET -0.019670 -0.007318 0.019638 
									CHANNELS 3 Zrotation Xrotation Yrotation
									JOINT RightHandThumb2
									{
										OFFSET -0.025498 -0.008492 0.023179 
										CHANNELS 3 Zrotation Xrotation Yrotation
										JOINT RightHandThumb3
										{
											OFFSET -0.034504 -0.010705 0.016680 
											CHANNELS 3 Zrotation Xrotation Yrotation
											End Site
											{
												OFFSET -0.020312 -0.007813 0.007813 
											}
										}
									}
								}
								JOINT RightHandIndex1
								{
									OFFSET -0.081770 0.003825 0.021187 
									CHANNELS 3 Zrotation Xrotation Yrotation
									JOINT RightHandIndex2
									{
										OFFSET -0.042006 0.000000 0.000000 
										CHANNELS 3 Zrotation Xrotation Yrotation
										JOINT RightHandIndex3
										{
											OFFSET -0.026449 0.000000 0.000000 
											CHANNELS 3 Zrotation Xrotation Yrotation
											End Site
											{
												OFFSET -0.020312 0.000000 0.000000 
											}
										}
									}
								}
								JOINT RightHandMiddle1
								{
									OFFSET -0.084059 0.003825 0.003342 
									CHANNELS 3 Zrotation Xrotation Yrotation
									JOINT RightHandMiddle2
									{
										OFFSET -0.043881 0.000000 0.000000 
										CHANNELS 3 Zrotation Xrotation Yrotation
										JOINT RightHandMiddle3
										{
											OFFSET -0.029191 0.000000 0.000000 
											CHANNELS 3 Zrotation Xrotation Yrotation
											End Site
											{
												OFFSET -0.017969 0.000000 0.000000 
											}
										}
									}
								}
								JOINT RightHandRing1
								{
									OFFSET -0.081798 0.003030 -0.015127 
									CHANNELS 3 Zrotation Xrotation Yrotation
									JOINT RightHandRing2
									{
										OFFSET -0.042198 0.000000 0.000000 
										CHANNELS 3 Zrotation Xrotation Yrotation
										JOINT RightHandRing3
										{
											OFFSET -0.026497 0.000000 0.000000 
											CHANNELS 3 Zrotation Xrotation Yrotation
											End Site
											{
												OFFSET -0.017188 0.000000 0.000000 
											}
										}
									}
								}
								JOINT RightHandPinky1
								{
									OFFSET -0.077902 -0.000930 -0.030891 
									CHANNELS 3 Zrotation Xrotation Yrotation
									JOINT RightHandPinky2
									{
										OFFSET -0.028538 0.000000 0.000000 
										CHANNELS 3 Zrotation Xrotation Yrotation
										JOINT RightHandPinky3
										{
											OFFSET -0.021734 0.000000 0.000000 
											CHANNELS 3 Zrotation Xrotation Yrotation
											End Site
											{
												OFFSET -0.022656 0.000000 0.000000 
											}
										}
									}
								}
							}
						}
					}
				}
			}
		}
	}
	JOINT LeftUpLeg
	{
		OFFSET 0.075264 -0.025573 0.000000 
		CHANNELS 3 Xrotation Yrotation Zrotation
		JOINT LeftLeg
		{
			OFFSET 0.000000 -0.326016 -0.013516 
			CHANNELS 3 Xrotation Yrotation Zrotation
			JOINT LeftFoot
			{
				OFFSET 0.000098 -0.306172 -0.006623 
				CHANNELS 3 Xrotation Yrotation Zrotation
				JOINT LeftToeBase
				{
					OFFSET -0.001432 -0.095259 0.064705 
					CHANNELS 3 Xrotation Yrotation Zrotation
					End Site
					{
						OFFSET 0.000000 0.000000 0.079438 
					}
				}
			}
		}
	}
	JOINT RightUpLeg
	{
		OFFSET -0.075264 -0.025573 0.000000 
		CHANNELS 3 Xrotation Yrotation Zrotation
		JOINT RightLeg
		{
			OFFSET 0.000000 -0.326016 -0.013516 
			CHANNELS 3 Xrotation Yrotation Zrotation
			JOINT RightFoot
			{
				OFFSET 0.000098 -0.306172 -0.006623 
				CHANNELS 3 Xrotation Yrotation Zrotation
				JOINT RightToeBase
				{
					OFFSET -0.001432 -0.095259 0.064705 
					CHANNELS 3 Xrotation Yrotation Zrotation
					End Site
					{
						OFFSET 0.000025 0.000000 0.079438 
					}
				}
			}
		}
	}
}
MOTION
Frames: 7
Frame Time: 0.033333
0.034265 0.734320 0.672445 3.091300 -0.790900 0.485500 4.860900 -4.322700 -1.049000 2.047700 -3.110700 0.556900 2.037200 -3.067500 0.660500 0.655100 2.687000 -1.325300 -0.000000 0.000000 -0.000000 -1.684500 6.856000 -1.762700 -15.013600 2.639800 -8.524700 -50.893501 18.005899 -13.248400 0.000000 0.000000 -27.417200 -13.996100 8.364000 10.311600 4.641700 10.699300 10.557100 3.956500 -1.672000 -0.776100 25.112499 -0.821800 -8.665300 -26.281900 0.002000 -0.580600 -11.946900 0.000300 -0.003100 -13.946800 0.000400 -0.003600 -17.497299 0.275000 -6.773300 -15.113300 0.000500 -0.003900 -15.113300 0.000500 -0.003900 -28.485800 0.002200 1.769600 -19.444901 0.000900 -0.005000 -21.441999 0.001000 -0.005500 -32.100601 -0.062800 0.739800 -17.741100 0.000700 -0.004600 -17.741100 0.000700 -0.004600 14.637100 1.885400 5.239700 56.280602 20.660101 3.063400 -0.000000 0.000000 9.477500 10.383600 7.644900 13.086100 1.885200 18.796101 -12.609500 -5.550400 -1.330000 -7.879000 -16.877501 -17.677700 -0.758200 13.388400 0.265600 7.653000 23.877501 0.000700 0.003200 10.578900 0.000100 0.001400 16.302799 0.000400 3.564000 35.232700 0.001500 0.004600 20.416599 0.000500 0.002800 19.204201 0.000600 0.914800 47.705399 0.002600 0.005900 23.391800 0.000600 0.003100 24.508499 0.000600 -0.684800 28.708799 0.001000 0.003800 15.980400 0.000300 0.002200 -11.998500 6.820400 -2.767300 28.405001 -7.693900 3.572600 -14.930400 -0.242000 2.306600 -6.822900 0.000000 -0.000000 -35.463100 -8.062200 -8.763000 72.569702 0.275900 0.380100 -8.457000 -0.751800 7.265400 -7.646700 0.000000 -0.000000 
0.032220 0.737745 0.712377 3.842100 -0.540700 0.721800 4.964700 -5.294400 -1.247600 2.101000 -4.140600 1.052500 2.071100 -4.096100 1.181900 0.697500 3.211600 -1.044300 -0.000000 0.000000 -0.000000 -1.244200 8.241300 -2.105800 -14.636800 2.653000 -8.775600 -48.123600 19.551001 -16.298901 0.000000 -0.000000 -34.370499 -13.298500 7.799300 9.280200 4.641700 10.699300 10.557100 4.241400 -2.668500 -1.252700 25.014900 -0.683700 -8.203900 -25.962400 0.001900 -0.811000 -11.931700 0.000300 -0.003100 -13.931500 0.000400 -0.003600 -17.001499 0.220300 -7.149900 -15.104800 0.000500 -0.003900 -15.104800 0.000500 -0.003900 -27.858101 0.002200 1.712400 -19.500799 0.000900 -0.005000 -21.498100 0.001100 -0.005500 -31.770100 -0.062000 0.722600 -17.764099 0.000700 -0.004600 -17.764099 0.000700 -0.004600 14.702700 1.811400 4.878300 57.737499 20.074800 -0.360000 -0.000000 0.000000 9.559100 13.731800 6.315500 12.556200 1.885200 18.796101 -12.609500 -5.488900 -1.205900 -7.946600 -16.877701 -17.678101 -0.756900 13.645200 0.278200 7.614300 23.925501 0.000700 0.003200 10.627000 0.000100 0.001500 16.385799 0.000400 3.582300 35.243698 0.001400 0.004600 20.427500 0.000500 0.002800 19.377899 0.000600 0.973500 47.658600 0.002600 0.005900 23.344900 0.000600 0.003100 24.549900 -0.001500 -0.583600 28.715700 0.001000 0.003800 15.985900 0.000300 0.002200 -5.818200 7.236000 -3.407900 22.866301 -9.107100 4.921500 -15.640300 -0.198500 1.260800 -6.624100 0.000000 -0.000000 -40.700500 -7.518000 -8.937800 66.061897 -0.749100 0.894100 -13.141900 -1.138500 7.623300 -6.918200 0.000000 -0.000000 
0.029966 0.736252 0.752207 4.530300 0.021300 1.010600 4.977000 -6.019000 -1.661300 2.191100 -5.097300 1.724500 2.118400 -5.044800 1.873400 0.554300 3.742300 -1.160300 -0.000000 0.000000 -0.000000 -1.510700 9.286000 -2.226900 -14.198300 2.662000 -9.048000 -44.940498 20.710600 -18.950199 -0.000000 -0.000000 -41.666302 -9.986600 7.400200 9.080600 4.641700 10.699300 10.557100 4.189500 -3.333700 -1.723000 24.924500 -0.579100 -7.854900 -25.863400 0.001900 -0.966000 -11.899500 0.000300 -0.003100 -13.899200 0.000400 -0.003600 -17.168501 0.219400 -7.161100 -15.092600 0.000500 -0.003900 -15.092600 0.000500 -0.003900 -27.692101 0.002100 1.652400 -19.543200 0.000900 -0.005000 -21.540701 0.001000 -0.005500 -31.496401 -0.032900 0.374000 -17.733000 0.000700 -0.004600 -17.733000 0.000700 -0.004600 14.536300 1.692300 4.393900 59.144600 19.531500 -3.502800 -0.000000 0.000000 10.248500 16.071199 3.775700 12.352500 1.885200 18.796101 -12.609500 -5.379200 -0.996100 -7.748300 -16.881701 -17.685900 -0.731600 14.226600 0.267600 7.644200 23.868700 0.000700 0.003200 10.570100 0.000100 0.001400 16.683001 0.000400 3.578100 35.275299 0.001500 0.004600 20.459101 0.000500 0.002800 19.693899 0.000600 1.103900 47.610298 0.002600 0.005800 23.296301 0.000600 0.003100 24.793600 -0.005300 -0.280700 28.674299 0.001000 0.003800 15.940400 0.000300 0.002200 -0.785100 8.020700 -3.553500 18.605400 -7.855600 5.581300 -16.995001 -3.182600 -0.187600 -6.481200 0.000000 -0.000000 -44.403400 -6.576400 -8.255600 55.823700 -2.061900 0.092800 -12.572900 -1.045900 7.034100 -6.492400 0.000000 -0.000000 
0.027138 0.731370 0.793519 5.541700 0.743900 2.072200 4.506600 -6.999500 -3.309200 2.483900 -5.919600 2.663700 2.320800 -5.844400 2.845700 0.393000 4.279900 -1.715000 -0.000000 0.000000 -0.000000 -2.441600 10.039100 -2.061100 -13.836700 2.699800 -9.427800 -41.269798 21.167299 -21.637199 -0.000000 0.000000 -47.810600 -5.614600 6.691300 9.561100 4.641700 10.699300 10.557100 4.058700 -4.050500 -2.427700 24.796101 -0.452700 -7.433700 -25.393101 0.001800 -1.076800 -11.885800 0.000300 -0.003100 -13.885500 0.000400 -0.003600 -16.774799 0.228600 -7.106100 -15.097500 0.000500 -0.003900 -15.097400 0.000500 -0.003900 -27.333700 0.002100 1.591600 -19.583700 0.000900 -0.005000 -21.581301 0.001100 -0.005500 -31.095800 0.000700 -0.088800 -17.724701 0.000700 -0.004600 -17.724701 0.000700 -0.004600 14.252300 1.566700 3.916700 60.398399 18.759001 -6.055600 0.000000 0.000000 10.817900 17.916100 0.885700 11.580800 1.885200 18.796000 -12.609500 -5.208700 -0.439000 -7.171400 -16.886499 -17.695299 -0.700900 15.068000 0.261500 7.660000 23.968700 0.000700 0.003200 10.670100 0.000100 0.001500 16.868200 0.000400 3.529800 35.282398 0.001500 0.004600 20.466299 0.000500 0.002800 20.104900 0.000600 1.189300 47.550701 0.002600 0.005800 23.236601 0.000600 0.003100 24.919100 -0.010400 -0.050800 28.431299 0.001000 0.003800 15.694000 0.000300 0.002100 4.177700 9.687400 -3.816100 14.365600 -5.811100 5.443000 -18.311001 -8.169800 -2.013200 -6.609400 0.000000 -0.000000 -44.837399 -4.992800 -7.223800 40.824699 -3.970300 -2.556200 -10.180000 -0.881100 7.108300 -6.493100 0.000000 -0.000000 
0.024208 0.722498 0.836166 6.658900 1.528000 3.071000 3.702200 -7.614700 -4.642300 2.728600 -6.761100 3.300700 2.512500 -6.664600 3.516700 0.283000 4.772500 -2.249600 -0.000000 0.000000 -0.000000 -3.418600 10.554900 -1.907600 -13.813700 2.840600 -10.114800 -37.050301 21.193501 -23.859800 0.000000 -0.000000 -53.271599 0.780300 6.616000 8.977600 4.641700 10.699300 10.557100 4.045900 -5.183000 -3.478300 24.632500 -0.262300 -6.802100 -24.498100 0.001700 -1.197000 -11.862400 0.000300 -0.003100 -13.862000 0.000400 -0.003600 -15.667900 0.210100 -7.239000 -15.059900 0.000500 -0.003900 -15.059900 0.000500 -0.003900 -26.525499 0.002000 1.540400 -19.589800 0.000900 -0.005000 -21.587601 0.001000 -0.005500 -30.569000 -0.000900 -0.325900 -17.676701 0.000700 -0.004600 -17.676600 0.000700 -0.004600 13.941400 1.405700 3.277400 61.439301 17.917700 -8.118800 -0.000000 0.000000 11.054700 19.610500 -1.653800 10.515300 1.885200 18.796000 -12.609500 -5.048700 0.076100 -6.723800 -16.888500 -17.699200 -0.688100 15.810800 0.264700 7.647200 23.970400 0.000700 0.003200 10.671800 0.000100 0.001500 17.006800 0.000400 3.399900 35.321800 0.001500 0.004600 20.506100 0.000500 0.002800 20.372000 0.000600 1.203900 47.521301 0.002600 0.005800 23.207100 0.000600 0.003100 25.027901 -0.023900 0.139700 28.349800 0.000900 0.003800 15.609600 0.000300 0.002100 7.770400 11.052000 -3.772800 12.945400 -2.801100 5.316800 -20.964199 -13.588600 -4.133100 -7.136700 0.000000 -0.000000 -42.234699 -4.784400 -6.900100 25.318300 -4.242500 -4.687700 -10.342600 -0.898600 7.303700 -7.084500 0.000000 -0.000000 
0.021219 0.712851 0.877578 7.324500 2.428000 3.648200 3.130400 -7.400900 -4.666300 2.652300 -7.522100 3.293000 2.474400 -7.427300 3.509800 0.074300 5.132800 -2.435600 -0.000000 0.000000 -0.000000 -3.894000 10.755000 -1.900700 -13.852900 2.957000 -10.650100 -32.946899 21.182501 -25.693501 -0.000000 -0.000000 -57.206501 7.844100 5.791300 7.599600 4.641700 10.699300 10.557100 4.155200 -6.078800 -4.905200 24.496500 -0.091200 -6.235300 -23.549200 0.001600 -1.214400 -11.893700 0.000300 -0.003100 -13.893400 0.000400 -0.003600 -14.223700 0.161000 -7.573300 -15.039100 0.000500 -0.003900 -15.039200 0.000500 -0.003900 -25.593300 0.001900 1.584500 -19.559299 0.000900 -0.005000 -21.556999 0.001100 -0.005500 -30.041100 -0.001900 -0.144800 -17.655800 0.000700 -0.004600 -17.655800 0.000700 -0.004600 13.676800 1.205100 2.427900 62.255402 17.107201 -9.468400 0.000000 -0.000000 10.905400 20.876600 -4.437800 9.506900 1.885200 18.796000 -12.609500 -4.961600 0.304400 -6.396100 -16.888399 -17.699100 -0.688500 16.140499 0.258200 7.662700 23.948000 0.000700 0.003200 10.649400 0.000100 0.001500 16.997200 0.000400 3.299300 35.359299 0.001500 0.004600 20.543900 0.000500 0.002800 20.497499 0.000600 1.223900 47.533298 0.002600 0.005800 23.219000 0.000600 0.003100 25.219500 -0.065800 0.383800 28.469999 0.001000 0.003800 15.726000 0.000300 0.002100 12.935900 11.774000 -4.007300 7.874500 -1.081800 5.759100 -21.692699 -16.767000 -6.560200 -8.042000 0.000000 -0.000000 -36.818199 -5.987200 -6.762800 8.151100 -2.094800 -4.806700 -5.548200 -0.643000 8.263200 -6.270300 0.000000 -0.000000 
0.017067 0.702814 0.921402 7.369900 2.580300 3.431800 3.374700 -6.837900 -3.862400 2.617700 -7.936500 3.165400 2.476000 -7.844000 3.392400 -0.248000 5.322800 -2.285600 -0.000000 0.000000 -0.000000 -4.311900 10.790100 -1.943900 -13.502000 2.914800 -10.677800 -30.639400 21.035299 -26.970501 0.000000 0.000000 -58.599800 12.154800 3.386200 6.659200 4.641700 10.699300 10.557100 3.828900 -5.049200 -4.243400 24.555099 -0.224800 -6.666700 -24.340799 0.001700 -1.157200 -11.884700 0.000300 -0.003100 -13.884300 0.000400 -0.003600 -15.545700 0.225700 -7.162100 -15.043600 0.000500 -0.003900 -15.043600 0.000500 -0.003900 -26.366800 0.002000 1.550200 -19.585899 0.000900 -0.005000 -21.583700 0.001100 -0.005500 -30.267000 -0.004100 -0.384200 -17.680300 0.000700 -0.004600 -17.680201 0.000700 -0.004600 13.739300 1.091700 1.899300 62.492901 16.490400 -9.844200 -0.000000 -0.000000 10.421700 22.299000 -7.729200 8.746500 1.885200 18.796000 -12.609400 -4.917300 0.450000 -6.222000 -16.889299 -17.700899 -0.682700 16.109699 0.272000 7.615700 23.896400 0.000700 0.003200 10.597800 0.000100 0.001500 16.706100 0.000400 3.179700 35.342899 0.001500 0.004600 20.527800 0.000500 0.002800 20.376101 0.000600 1.123900 47.487499 0.002600 0.005800 23.173500 0.000600 0.003100 25.007299 -0.058500 0.336400 28.313200 0.000900 0.003700 15.569800 0.000300 0.002100 17.842600 12.924800 -3.842100 4.874300 -0.943900 7.223600 -21.307400 -18.051399 -8.271200 -9.571700 0.000000 -0.000000 -37.369301 -6.060900 -6.232700 10.391700 -1.049000 -4.215800 -2.789600 -0.244200 5.154200 -8.387000 0.000000 -0.000000 
